<svg viewBox="0 0 620 340" xmlns="http://www.w3.org/2000/svg" font-family="-apple-system, Segoe UI, Roboto, Arial, sans-serif">
  <defs>
    <marker id="arrow" markerWidth="10" markerHeight="10" refX="9" refY="3" orient="auto" markerUnits="strokeWidth">
      <path d="M0,0 L0,6 L9,3 z" fill="#3b6ea5"/>
    </marker>
  </defs>

  <rect x="230" y="140" width="160" height="70" rx="6" fill="#eaf1f8" stroke="#3b6ea5" stroke-width="1.5"/>
  <text x="310" y="165" text-anchor="middle" font-size="14" font-weight="600" fill="#2d2f33">ChatRoom</text>
  <line x1="230" y1="173" x2="390" y2="173" stroke="#3b6ea5" stroke-width="1"/>
  <text x="246" y="190" text-anchor="start" font-size="11" fill="#2d2f33">sendMessage(msg, sender)</text>

  <rect x="30" y="30" width="130" height="60" rx="6" fill="#ffffff" stroke="#3b6ea5" stroke-width="1.5"/>
  <text x="95" y="65" text-anchor="middle" font-size="13" font-weight="600" fill="#2d2f33">Alice (User)</text>

  <rect x="245" y="30" width="130" height="60" rx="6" fill="#ffffff" stroke="#3b6ea5" stroke-width="1.5"/>
  <text x="310" y="65" text-anchor="middle" font-size="13" font-weight="600" fill="#2d2f33">Bob (User)</text>

  <rect x="460" y="30" width="130" height="60" rx="6" fill="#ffffff" stroke="#3b6ea5" stroke-width="1.5"/>
  <text x="525" y="65" text-anchor="middle" font-size="13" font-weight="600" fill="#2d2f33">Carol (User)</text>

  <line x1="95" y1="90" x2="260" y2="140" stroke="#3b6ea5" stroke-width="1.3" marker-end="url(#arrow)"/>
  <line x1="310" y1="90" x2="310" y2="140" stroke="#3b6ea5" stroke-width="1.3" marker-end="url(#arrow)"/>
  <line x1="525" y1="90" x2="360" y2="140" stroke="#3b6ea5" stroke-width="1.3" marker-end="url(#arrow)"/>

  <line x1="260" y1="210" x2="95" y2="260" stroke="#3b6ea5" stroke-width="1.3" stroke-dasharray="4,3" marker-end="url(#arrow)"/>
  <line x1="360" y1="210" x2="525" y2="260" stroke="#3b6ea5" stroke-width="1.3" stroke-dasharray="4,3" marker-end="url(#arrow)"/>

  <rect x="30" y="260" width="130" height="50" rx="6" fill="#f6f8fa" stroke="#e3e6ea" stroke-width="1.2"/>
  <text x="95" y="290" text-anchor="middle" font-size="11" fill="#2d2f33">receives via mediator</text>

  <rect x="460" y="260" width="130" height="50" rx="6" fill="#f6f8fa" stroke="#e3e6ea" stroke-width="1.2"/>
  <text x="525" y="290" text-anchor="middle" font-size="11" fill="#2d2f33">receives via mediator</text>

  <text x="310" y="330" text-anchor="middle" font-size="11" fill="#6a7178">Users never hold references to each other — only to ChatRoom</text>
</svg>
