<svg viewBox="0 0 640 280" xmlns="http://www.w3.org/2000/svg" font-family="-apple-system, Segoe UI, Roboto, Arial, sans-serif">
  <defs>
    <marker id="arrow" markerWidth="10" markerHeight="10" refX="9" refY="3" orient="auto" markerUnits="strokeWidth">
      <path d="M0,0 L0,6 L9,3 z" fill="#3b6ea5"/>
    </marker>
  </defs>

  <text x="160" y="24" text-anchor="middle" font-size="13" font-weight="600" fill="#2d2f33">Read replicas — one primary, many readers</text>

  <rect x="90" y="45" width="140" height="45" rx="6" fill="#eaf1f8" stroke="#3b6ea5" stroke-width="1.5"/>
  <text x="160" y="72" text-anchor="middle" font-size="12" font-weight="600" fill="#2d2f33">Primary (writes)</text>

  <rect x="20" y="130" width="90" height="40" rx="6" fill="#ffffff" stroke="#3b6ea5" stroke-width="1.3"/>
  <text x="65" y="154" text-anchor="middle" font-size="10" font-weight="600" fill="#2d2f33">Replica A</text>

  <rect x="135" y="130" width="90" height="40" rx="6" fill="#ffffff" stroke="#3b6ea5" stroke-width="1.3"/>
  <text x="180" y="154" text-anchor="middle" font-size="10" font-weight="600" fill="#2d2f33">Replica B</text>

  <line x1="145" y1="90" x2="80" y2="130" stroke="#3b6ea5" stroke-width="1.2" stroke-dasharray="4,3" marker-end="url(#arrow)"/>
  <line x1="170" y1="90" x2="180" y2="130" stroke="#3b6ea5" stroke-width="1.2" stroke-dasharray="4,3" marker-end="url(#arrow)"/>
  <text x="160" y="112" text-anchor="middle" font-size="9" fill="#6a7178">syncs writes</text>

  <text x="122" y="192" text-anchor="middle" font-size="10" fill="#6a7178">reads spread across replicas</text>

  <line x1="410" y1="45" x2="410" y2="240" stroke="#e3e6ea" stroke-width="1.5"/>

  <text x="530" y="24" text-anchor="middle" font-size="13" font-weight="600" fill="#2d2f33">Sharding — data split by key</text>

  <rect x="440" y="55" width="80" height="40" rx="6" fill="#eaf1f8" stroke="#3b6ea5" stroke-width="1.4"/>
  <text x="480" y="79" text-anchor="middle" font-size="10" font-weight="600" fill="#2d2f33">Shard 1</text>
  <text x="480" y="107" text-anchor="middle" font-size="9" fill="#6a7178">users A–I</text>

  <rect x="440" y="125" width="80" height="40" rx="6" fill="#eaf1f8" stroke="#3b6ea5" stroke-width="1.4"/>
  <text x="480" y="149" text-anchor="middle" font-size="10" font-weight="600" fill="#2d2f33">Shard 2</text>
  <text x="480" y="177" text-anchor="middle" font-size="9" fill="#6a7178">users J–R</text>

  <rect x="440" y="195" width="80" height="40" rx="6" fill="#eaf1f8" stroke="#3b6ea5" stroke-width="1.4"/>
  <text x="480" y="219" text-anchor="middle" font-size="10" font-weight="600" fill="#2d2f33">Shard 3</text>
  <text x="480" y="247" text-anchor="middle" font-size="9" fill="#6a7178">users S–Z</text>

  <title>Read replicas vs. sharding</title>
</svg>
