<svg viewBox="0 0 700 300" xmlns="http://www.w3.org/2000/svg" font-family="-apple-system, Segoe UI, Roboto, Arial, sans-serif">
  <defs>
    <marker id="arrow" markerWidth="10" markerHeight="10" refX="9" refY="3" orient="auto" markerUnits="strokeWidth">
      <path d="M0,0 L0,6 L9,3 z" fill="#3b6ea5"/>
    </marker>
  </defs>

  <text x="175" y="28" text-anchor="middle" font-size="14" font-weight="600" fill="#2d2f33">Read replicas</text>
  <text x="175" y="45" text-anchor="middle" font-size="10" fill="#6a7178">one primary, many readers</text>

  <rect x="105" y="65" width="140" height="45" rx="6" fill="#eaf1f8" stroke="#3b6ea5" stroke-width="1.5"/>
  <text x="175" y="92" text-anchor="middle" font-size="12" font-weight="600" fill="#2d2f33">Primary (writes)</text>

  <rect x="35" y="150" width="90" height="40" rx="6" fill="#ffffff" stroke="#3b6ea5" stroke-width="1.3"/>
  <text x="80" y="174" text-anchor="middle" font-size="10" font-weight="600" fill="#2d2f33">Replica A</text>

  <rect x="150" y="150" width="90" height="40" rx="6" fill="#ffffff" stroke="#3b6ea5" stroke-width="1.3"/>
  <text x="195" y="174" text-anchor="middle" font-size="10" font-weight="600" fill="#2d2f33">Replica B</text>

  <line x1="160" y1="110" x2="95" y2="150" stroke="#3b6ea5" stroke-width="1.2" stroke-dasharray="4,3" marker-end="url(#arrow)"/>
  <line x1="185" y1="110" x2="195" y2="150" stroke="#3b6ea5" stroke-width="1.2" stroke-dasharray="4,3" marker-end="url(#arrow)"/>
  <text x="230" y="125" text-anchor="middle" font-size="9" fill="#6a7178">syncs writes</text>

  <text x="137" y="215" text-anchor="middle" font-size="10" fill="#6a7178">reads spread across replicas</text>

  <line x1="350" y1="20" x2="350" y2="270" stroke="#e3e6ea" stroke-width="1.5"/>

  <text x="525" y="28" text-anchor="middle" font-size="14" font-weight="600" fill="#2d2f33">Sharding</text>
  <text x="525" y="45" text-anchor="middle" font-size="10" fill="#6a7178">data split by key</text>

  <rect x="485" y="65" width="80" height="40" rx="6" fill="#eaf1f8" stroke="#3b6ea5" stroke-width="1.4"/>
  <text x="525" y="89" text-anchor="middle" font-size="10" font-weight="600" fill="#2d2f33">Shard 1</text>
  <text x="525" y="118" text-anchor="middle" font-size="9" fill="#6a7178">users A-I</text>

  <rect x="485" y="135" width="80" height="40" rx="6" fill="#eaf1f8" stroke="#3b6ea5" stroke-width="1.4"/>
  <text x="525" y="159" text-anchor="middle" font-size="10" font-weight="600" fill="#2d2f33">Shard 2</text>
  <text x="525" y="188" text-anchor="middle" font-size="9" fill="#6a7178">users J-R</text>

  <rect x="485" y="205" width="80" height="40" rx="6" fill="#eaf1f8" stroke="#3b6ea5" stroke-width="1.4"/>
  <text x="525" y="229" text-anchor="middle" font-size="10" font-weight="600" fill="#2d2f33">Shard 3</text>
  <text x="525" y="258" text-anchor="middle" font-size="9" fill="#6a7178">users S-Z</text>

  <title>Read replicas vs. sharding</title>
</svg>
